<?xml version="1.0" encoding="UTF-8" standalone="no"?>
<!DOCTYPE svg PUBLIC "-//W3C//DTD SVG 1.1//EN"
 "http://www.w3.org/Graphics/SVG/1.1/DTD/svg11.dtd">
<!-- Generated by graphviz version 2.43.0 (0)
 -->
<!-- Title: src_cpp_omp/boundary.cpp Pages: 1 -->
<!--zoomable 192 -->

<svg id="main" version="1.1" xmlns="http://www.w3.org/2000/svg" xmlns:xlink="http://www.w3.org/1999/xlink" xml:space="preserve" onload="init(evt)">
<style type="text/css"><![CDATA[
.node, .edge {opacity: 0.7;}
.node.selected, .edge.selected {opacity: 1;}
.edge:hover path { stroke: red; }
.edge:hover polygon { stroke: red; fill: red; }
]]></style>

<defs>
  <circle id="rim" cx="0" cy="0" r="7"/>
  <circle id="rim2" cx="0" cy="0" r="3.5"/>
  <g id="zoomPlus">
    <use xlink:href="#rim" fill="#404040"><set attributeName="fill" to="#808080" begin="zoomplus.mouseover" end="zoomplus.mouseout"/></use>
    <path d="M-4,0h8M0,-4v8" fill="none" stroke="white" stroke-width="1.5" pointer-events="none"/>
  </g>
  <g id="zoomMin">
    <use xlink:href="#rim" fill="#404040"><set attributeName="fill" to="#808080" begin="zoomminus.mouseover" end="zoomminus.mouseout"/></use>
    <path d="M-4,0h8" fill="none" stroke="white" stroke-width="1.5" pointer-events="none"/>
  </g>
  <g id="arrowUp" transform="translate(30 24)">
    <use xlink:href="#rim"/>
    <path pointer-events="none" fill="none" stroke="white" stroke-width="1.5" d="M0,-3.0v7 M-2.5,-0.5L0,-3.0L2.5,-0.5"/>
  </g>
  <g id="arrowRight" transform="rotate(90) translate(36 -43)">
    <use xlink:href="#rim"/>
    <path pointer-events="none" fill="none" stroke="white" stroke-width="1.5" d="M0,-3.0v7 M-2.5,-0.5L0,-3.0L2.5,-0.5"/>
  </g>
  <g id="arrowDown" transform="rotate(180) translate(-30 -48)">
    <use xlink:href="#rim"/>
    <path pointer-events="none" fill="none" stroke="white" stroke-width="1.5" d="M0,-3.0v7 M-2.5,-0.5L0,-3.0L2.5,-0.5"/>
  </g>
  <g id="arrowLeft" transform="rotate(270) translate(-36 17)">
    <use xlink:href="#rim"/>
    <path pointer-events="none" fill="none" stroke="white" stroke-width="1.5" d="M0,-3.0v7 M-2.5,-0.5L0,-3.0L2.5,-0.5"/>
  </g>
  <g id="resetDef">
    <use xlink:href="#rim2" fill="#404040"><set attributeName="fill" to="#808080" begin="reset.mouseover" end="reset.mouseout"/></use>
  </g>
</defs>
<script type="application/ecmascript">
var viewWidth = 528;
var viewHeight = 192;
var sectionId = 'dynsection-0';
</script>
<script type="application/ecmascript" xlink:href="svg.min.js"/>
<svg id="graph" class="graph">
<g id="viewport">
<title>src_cpp_omp/boundary.cpp</title>
<!-- Node1 -->
<g id="Node000001" class="node">
<title>Node1</title>
<g id="a_Node000001"><a xlink:title=" ">
<polygon fill="#999999" stroke="#666666" points="284.5,-184 136.5,-184 136.5,-165 284.5,-165 284.5,-184"/>
<text text-anchor="middle" x="210.5" y="-172" font-family="Helvetica,sans-Serif" font-size="10.00">src_cpp_omp/boundary.cpp</text>
</a>
</g>
</g>
<!-- Node2 -->
<g id="Node000002" class="node">
<title>Node2</title>
<g id="a_Node000002"><a xlink:title=" ">
<polygon fill="#e0e0e0" stroke="#999999" points="47,-19 0,-19 0,0 47,0 47,-19"/>
<text text-anchor="middle" x="23.5" y="-7" font-family="Helvetica,sans-Serif" font-size="10.00">cmath</text>
</a>
</g>
</g>
<!-- Node1&#45;&gt;Node2 -->
<g id="edge1_Node000001_Node000002" class="edge">
<title>Node1&#45;&gt;Node2</title>
<g id="a_edge1_Node000001_Node000002"><a xlink:title=" ">
<path fill="none" stroke="#63b8ff" d="M136.15,-170.64C102.61,-165.6 64.92,-154.12 39.5,-129 13.13,-102.94 15.77,-55.58 19.77,-29.31"/>
<polygon fill="#63b8ff" stroke="#63b8ff" points="23.27,-29.63 21.55,-19.17 16.37,-28.42 23.27,-29.63"/>
</a>
</g>
</g>
<!-- Node3 -->
<g id="Node000003" class="node">
<title>Node3</title>
<g id="a_Node000003"><a xlink:title=" ">
<polygon fill="#e0e0e0" stroke="#999999" points="132.5,-19 86.5,-19 86.5,0 132.5,0 132.5,-19"/>
<text text-anchor="middle" x="109.5" y="-7" font-family="Helvetica,sans-Serif" font-size="10.00">cstdio</text>
</a>
</g>
</g>
<!-- Node1&#45;&gt;Node3 -->
<g id="edge2_Node000001_Node000003" class="edge">
<title>Node1&#45;&gt;Node3</title>
<g id="a_edge2_Node000001_Node000003"><a xlink:title=" ">
<path fill="none" stroke="#63b8ff" d="M142.72,-164.97C115.38,-158.7 85.05,-147.84 62.5,-129 35.51,-106.45 17.1,-85.56 34.5,-55 43.62,-38.98 61.03,-28.14 76.78,-21.17"/>
<polygon fill="#63b8ff" stroke="#63b8ff" points="78.33,-24.31 86.28,-17.31 75.7,-17.83 78.33,-24.31"/>
</a>
</g>
</g>
<!-- Node4 -->
<g id="Node000004" class="node">
<title>Node4</title>
<g id="a_Node000004"><a xlink:title=" ">
<polygon fill="#e0e0e0" stroke="#999999" points="307,-129 258,-129 258,-110 307,-110 307,-129"/>
<text text-anchor="middle" x="282.5" y="-117" font-family="Helvetica,sans-Serif" font-size="10.00">cstdlib</text>
</a>
</g>
</g>
<!-- Node1&#45;&gt;Node4 -->
<g id="edge3_Node000001_Node000004" class="edge">
<title>Node1&#45;&gt;Node4</title>
<g id="a_edge3_Node000001_Node000004"><a xlink:title=" ">
<path fill="none" stroke="#63b8ff" d="M222.07,-164.98C232.92,-157 249.38,-144.88 262.38,-135.31"/>
<polygon fill="#63b8ff" stroke="#63b8ff" points="264.74,-137.92 270.72,-129.17 260.59,-132.28 264.74,-137.92"/>
</a>
</g>
</g>
<!-- Node5 -->
<g id="Node000005" class="node">
<title>Node5</title>
<g id="a_Node000005"><a xlink:title=" ">
<polygon fill="#e0e0e0" stroke="#999999" points="225.5,-19 161.5,-19 161.5,0 225.5,0 225.5,-19"/>
<text text-anchor="middle" x="193.5" y="-7" font-family="Helvetica,sans-Serif" font-size="10.00">algorithm</text>
</a>
</g>
</g>
<!-- Node1&#45;&gt;Node5 -->
<g id="edge4_Node000001_Node000005" class="edge">
<title>Node1&#45;&gt;Node5</title>
<g id="a_edge4_Node000001_Node000005"><a xlink:title=" ">
<path fill="none" stroke="#63b8ff" d="M209.59,-164.74C206.93,-139.31 199.19,-65.08 195.5,-29.69"/>
<polygon fill="#63b8ff" stroke="#63b8ff" points="198.94,-28.89 194.42,-19.31 191.97,-29.62 198.94,-28.89"/>
</a>
</g>
</g>
<!-- Node6 -->
<g id="Node000006" class="node">
<title>Node6</title>
<g id="a_Node000006"><a xlink:title=" ">
<polygon fill="#e0e0e0" stroke="#999999" points="360.5,-74 316.5,-74 316.5,-55 360.5,-55 360.5,-74"/>
<text text-anchor="middle" x="338.5" y="-62" font-family="Helvetica,sans-Serif" font-size="10.00">mpi.h</text>
</a>
</g>
</g>
<!-- Node1&#45;&gt;Node6 -->
<g id="edge5_Node000001_Node000006" class="edge">
<title>Node1&#45;&gt;Node6</title>
<g id="a_edge5_Node000001_Node000006"><a xlink:title=" ">
<path fill="none" stroke="#63b8ff" d="M250.18,-164.97C272.02,-158.43 298.13,-147.32 315.5,-129 327.21,-116.65 333.04,-97.88 335.89,-83.95"/>
<polygon fill="#63b8ff" stroke="#63b8ff" points="339.35,-84.48 337.59,-74.03 332.45,-83.29 339.35,-84.48"/>
</a>
</g>
</g>
<!-- Node7 -->
<g id="Node000007" class="node">
<title>Node7</title>
<g id="a_Node000007"><a xlink:title=" ">
<polygon fill="#e0e0e0" stroke="#999999" points="520,-129 473,-129 473,-110 520,-110 520,-129"/>
<text text-anchor="middle" x="496.5" y="-117" font-family="Helvetica,sans-Serif" font-size="10.00">omp.h</text>
</a>
</g>
</g>
<!-- Node1&#45;&gt;Node7 -->
<g id="edge6_Node000001_Node000007" class="edge">
<title>Node1&#45;&gt;Node7</title>
<g id="a_edge6_Node000001_Node000007"><a xlink:title=" ">
<path fill="none" stroke="#63b8ff" d="M267.27,-164.99C316.61,-157.27 390.19,-144.98 462.59,-129.28"/>
<polygon fill="#63b8ff" stroke="#63b8ff" points="463.77,-132.6 472.79,-127.04 462.27,-125.76 463.77,-132.6"/>
</a>
</g>
</g>
<!-- Node8 -->
<g id="Node000008" class="node">
<title>Node8</title>
<g id="a_Node000008"><a xlink:href="config_8hpp.html" target="_top" xlink:title=" ">
<polygon fill="white" stroke="#666666" points="111,-74 44,-74 44,-55 111,-55 111,-74"/>
<text text-anchor="middle" x="77.5" y="-62" font-family="Helvetica,sans-Serif" font-size="10.00">config.hpp</text>
</a>
</g>
</g>
<!-- Node1&#45;&gt;Node8 -->
<g id="edge7_Node000001_Node000008" class="edge">
<title>Node1&#45;&gt;Node8</title>
<g id="a_edge7_Node000001_Node000008"><a xlink:title=" ">
<path fill="none" stroke="#63b8ff" d="M136.45,-166.92C112.1,-160.81 87.47,-149.55 72.5,-129 63.15,-116.16 65.86,-97.75 70.05,-84.05"/>
<polygon fill="#63b8ff" stroke="#63b8ff" points="73.47,-84.87 73.52,-74.27 66.88,-82.53 73.47,-84.87"/>
</a>
</g>
</g>
<!-- Node9 -->
<g id="Node000009" class="node">
<title>Node9</title>
<g id="a_Node000009"><a xlink:href="mhd_8hpp.html" target="_top" xlink:title=" ">
<polygon fill="white" stroke="#666666" points="188,-74 129,-74 129,-55 188,-55 188,-74"/>
<text text-anchor="middle" x="158.5" y="-62" font-family="Helvetica,sans-Serif" font-size="10.00">mhd.hpp</text>
</a>
</g>
</g>
<!-- Node1&#45;&gt;Node9 -->
<g id="edge8_Node000001_Node000009" class="edge">
<title>Node1&#45;&gt;Node9</title>
<g id="a_edge8_Node000001_Node000009"><a xlink:title=" ">
<path fill="none" stroke="#63b8ff" d="M206.24,-164.66C197.71,-146.93 178.35,-106.73 167.08,-83.32"/>
<polygon fill="#63b8ff" stroke="#63b8ff" points="170.16,-81.65 162.67,-74.16 163.85,-84.69 170.16,-81.65"/>
</a>
</g>
</g>
<!-- Node10 -->
<g id="Node000010" class="node">
<title>Node10</title>
<g id="a_Node000010"><a xlink:href="boundary_8hpp.html" target="_top" xlink:title=" ">
<polygon fill="white" stroke="#666666" points="163.5,-129 81.5,-129 81.5,-110 163.5,-110 163.5,-129"/>
<text text-anchor="middle" x="122.5" y="-117" font-family="Helvetica,sans-Serif" font-size="10.00">boundary.hpp</text>
</a>
</g>
</g>
<!-- Node1&#45;&gt;Node10 -->
<g id="edge12_Node000001_Node000010" class="edge">
<title>Node1&#45;&gt;Node10</title>
<g id="a_edge12_Node000001_Node000010"><a xlink:title=" ">
<path fill="none" stroke="#63b8ff" d="M196.36,-164.98C182.71,-156.77 161.81,-144.18 145.72,-134.49"/>
<polygon fill="#63b8ff" stroke="#63b8ff" points="147.27,-131.33 136.9,-129.17 143.66,-137.33 147.27,-131.33"/>
</a>
</g>
</g>
<!-- Node11 -->
<g id="Node000011" class="node">
<title>Node11</title>
<g id="a_Node000011"><a xlink:href="mpi__config_8hpp.html" target="_top" xlink:title=" ">
<polygon fill="white" stroke="#666666" points="455,-129 364,-129 364,-110 455,-110 455,-129"/>
<text text-anchor="middle" x="409.5" y="-117" font-family="Helvetica,sans-Serif" font-size="10.00">mpi_config.hpp</text>
</a>
</g>
</g>
<!-- Node1&#45;&gt;Node11 -->
<g id="edge15_Node000001_Node000011" class="edge">
<title>Node1&#45;&gt;Node11</title>
<g id="a_edge15_Node000001_Node000011"><a xlink:title=" ">
<path fill="none" stroke="#63b8ff" d="M242.47,-164.98C276.32,-155.97 329.9,-141.7 367.21,-131.76"/>
<polygon fill="#63b8ff" stroke="#63b8ff" points="368.51,-135.04 377.28,-129.08 366.71,-128.27 368.51,-135.04"/>
</a>
</g>
</g>
<!-- Node9&#45;&gt;Node2 -->
<g id="edge9_Node000009_Node000002" class="edge">
<title>Node9&#45;&gt;Node2</title>
<g id="a_edge9_Node000009_Node000002"><a xlink:title=" ">
<path fill="none" stroke="#63b8ff" d="M136.81,-54.98C114.7,-46.3 80.18,-32.75 55.05,-22.88"/>
<polygon fill="#63b8ff" stroke="#63b8ff" points="56.17,-19.57 45.58,-19.17 53.61,-26.08 56.17,-19.57"/>
</a>
</g>
</g>
<!-- Node9&#45;&gt;Node3 -->
<g id="edge10_Node000009_Node000003" class="edge">
<title>Node9&#45;&gt;Node3</title>
<g id="a_edge10_Node000009_Node000003"><a xlink:title=" ">
<path fill="none" stroke="#63b8ff" d="M150.41,-54.75C143.34,-47.11 132.91,-35.82 124.35,-26.56"/>
<polygon fill="#63b8ff" stroke="#63b8ff" points="126.8,-24.06 117.44,-19.09 121.66,-28.81 126.8,-24.06"/>
</a>
</g>
</g>
<!-- Node9&#45;&gt;Node5 -->
<g id="edge11_Node000009_Node000005" class="edge">
<title>Node9&#45;&gt;Node5</title>
<g id="a_edge11_Node000009_Node000005"><a xlink:title=" ">
<path fill="none" stroke="#63b8ff" d="M164.28,-54.75C169.12,-47.42 176.18,-36.73 182.14,-27.7"/>
<polygon fill="#63b8ff" stroke="#63b8ff" points="185.24,-29.36 187.83,-19.09 179.4,-25.5 185.24,-29.36"/>
</a>
</g>
</g>
<!-- Node10&#45;&gt;Node8 -->
<g id="edge13_Node000010_Node000008" class="edge">
<title>Node10&#45;&gt;Node8</title>
<g id="a_edge13_Node000010_Node000008"><a xlink:title=" ">
<path fill="none" stroke="#63b8ff" d="M115.07,-109.75C108.65,-102.18 99.19,-91.05 91.38,-81.84"/>
<polygon fill="#63b8ff" stroke="#63b8ff" points="93.93,-79.45 84.79,-74.09 88.6,-83.98 93.93,-79.45"/>
</a>
</g>
</g>
<!-- Node10&#45;&gt;Node9 -->
<g id="edge14_Node000010_Node000009" class="edge">
<title>Node10&#45;&gt;Node9</title>
<g id="a_edge14_Node000010_Node000009"><a xlink:title=" ">
<path fill="none" stroke="#63b8ff" d="M128.44,-109.75C133.48,-102.34 140.84,-91.5 147.01,-82.41"/>
<polygon fill="#63b8ff" stroke="#63b8ff" points="149.94,-84.33 152.67,-74.09 144.15,-80.39 149.94,-84.33"/>
</a>
</g>
</g>
<!-- Node11&#45;&gt;Node6 -->
<g id="edge16_Node000011_Node000006" class="edge">
<title>Node11&#45;&gt;Node6</title>
<g id="a_edge16_Node000011_Node000006"><a xlink:title=" ">
<path fill="none" stroke="#63b8ff" d="M398.09,-109.98C387.39,-102 371.16,-89.88 358.34,-80.31"/>
<polygon fill="#63b8ff" stroke="#63b8ff" points="360.22,-77.35 350.11,-74.17 356.03,-82.96 360.22,-77.35"/>
</a>
</g>
</g>
<!-- Node12 -->
<g id="Node000012" class="node">
<title>Node12</title>
<g id="a_Node000012"><a xlink:title=" ">
<polygon fill="#e0e0e0" stroke="#999999" points="436,-74 383,-74 383,-55 436,-55 436,-74"/>
<text text-anchor="middle" x="409.5" y="-62" font-family="Helvetica,sans-Serif" font-size="10.00">cstddef</text>
</a>
</g>
</g>
<!-- Node11&#45;&gt;Node12 -->
<g id="edge17_Node000011_Node000012" class="edge">
<title>Node11&#45;&gt;Node12</title>
<g id="a_edge17_Node000011_Node000012"><a xlink:title=" ">
<path fill="none" stroke="#63b8ff" d="M409.5,-109.75C409.5,-102.8 409.5,-92.85 409.5,-84.13"/>
<polygon fill="#63b8ff" stroke="#63b8ff" points="413,-84.09 409.5,-74.09 406,-84.09 413,-84.09"/>
</a>
</g>
</g>
</g>
</svg>

<g id="navigator" transform="translate(0 0)" fill="#404254">
  <rect fill="#f2f5e9" fill-opacity="0.5" stroke="#606060" stroke-width=".5" x="0" y="0" width="60" height="60"/>
  <use id="zoomplus" xlink:href="#zoomPlus" x="17" y="9" onmousedown="handleZoom(evt,'in')"/>
  <use id="zoomminus" xlink:href="#zoomMin" x="42" y="9" onmousedown="handleZoom(evt,'out')"/>
  <use id="reset" xlink:href="#resetDef" x="30" y="36" onmousedown="handleReset()"/>
   <use id="arrowup" xlink:href="#arrowUp" x="0" y="0" onmousedown="handlePan(0,-1)"/>
  <use id="arrowright" xlink:href="#arrowRight" x="0" y="0" onmousedown="handlePan(1,0)"/>
  <use id="arrowdown" xlink:href="#arrowDown" x="0" y="0" onmousedown="handlePan(0,1)"/>
  <use id="arrowleft" xlink:href="#arrowLeft" x="0" y="0" onmousedown="handlePan(-1,0)"/>
</g>
<svg viewBox="0 0 15 15" width="100%" height="30px" preserveAspectRatio="xMaxYMin meet">
 <g id="arrow_out" transform="scale(0.3 0.3)">
  <a xlink:href="boundary_8cpp__incl_org.svg" target="_base">
   <rect id="button" ry="5" rx="5" y="6" x="6" height="38" width="38"
        fill="#f2f5e9" fill-opacity="0.5" stroke="#606060" stroke-width="1.0"/>
   <path id="arrow"
     d="M 11.500037,31.436501 C 11.940474,20.09759 22.043105,11.32322 32.158766,21.979434 L 37.068811,17.246167 C 37.068811,17.246167 37.088388,32 37.088388,32 L 22.160133,31.978069 C 22.160133,31.978069 26.997745,27.140456 26.997745,27.140456 C 18.528582,18.264221 13.291696,25.230495 11.500037,31.436501 z"
     style="fill:#404040;"/>
  </a>
 </g>
</svg>

<style type='text/css'>
<![CDATA[
[data-mouse-over-selected='false'] { opacity: 0.7; }
[data-mouse-over-selected='true']  { opacity: 1.0; }
]]>
</style>
<script type="application/ecmascript"><![CDATA[
document.addEventListener('DOMContentLoaded', (event) => {
  highlightEdges();
  highlightAdjacentNodes();
});
]]></script>
</svg>
