<?xml version="1.0" encoding="UTF-8" standalone="no"?>
<!DOCTYPE svg PUBLIC "-//W3C//DTD SVG 1.1//EN"
 "http://www.w3.org/Graphics/SVG/1.1/DTD/svg11.dtd">
<!-- Generated by graphviz version 2.43.0 (0)
 -->
<!-- Title: src_cpp_omp/main.cpp Pages: 1 -->
<svg width="766pt" height="192pt"
 viewBox="0.00 0.00 765.50 192.00" xmlns="http://www.w3.org/2000/svg" xmlns:xlink="http://www.w3.org/1999/xlink">
<g id="graph0" class="graph" transform="scale(1 1) rotate(0) translate(4 188)">
<title>src_cpp_omp/main.cpp</title>
<!-- Node1 -->
<g id="Node000001" class="node">
<title>Node1</title>
<g id="a_Node000001"><a xlink:title=" ">
<polygon fill="#999999" stroke="#666666" points="394.5,-184 266.5,-184 266.5,-165 394.5,-165 394.5,-184"/>
<text text-anchor="middle" x="330.5" y="-172" font-family="Helvetica,sans-Serif" font-size="10.00">src_cpp_omp/main.cpp</text>
</a>
</g>
</g>
<!-- Node2 -->
<g id="Node000002" class="node">
<title>Node2</title>
<g id="a_Node000002"><a xlink:title=" ">
<polygon fill="#e0e0e0" stroke="#999999" points="47,-19 0,-19 0,0 47,0 47,-19"/>
<text text-anchor="middle" x="23.5" y="-7" font-family="Helvetica,sans-Serif" font-size="10.00">cmath</text>
</a>
</g>
</g>
<!-- Node1&#45;&gt;Node2 -->
<g id="edge1_Node000001_Node000002" class="edge">
<title>Node1&#45;&gt;Node2</title>
<g id="a_edge1_Node000001_Node000002"><a xlink:title=" ">
<path fill="none" stroke="#63b8ff" d="M266.29,-169.08C200.97,-163.41 105.37,-151.49 76.5,-129 44.45,-104.03 31.26,-55.48 26.26,-28.93"/>
<polygon fill="#63b8ff" stroke="#63b8ff" points="29.7,-28.31 24.58,-19.03 22.8,-29.47 29.7,-28.31"/>
</a>
</g>
</g>
<!-- Node3 -->
<g id="Node000003" class="node">
<title>Node3</title>
<g id="a_Node000003"><a xlink:title=" ">
<polygon fill="#e0e0e0" stroke="#999999" points="119.5,-19 73.5,-19 73.5,0 119.5,0 119.5,-19"/>
<text text-anchor="middle" x="96.5" y="-7" font-family="Helvetica,sans-Serif" font-size="10.00">cstdio</text>
</a>
</g>
</g>
<!-- Node1&#45;&gt;Node3 -->
<g id="edge2_Node000001_Node000003" class="edge">
<title>Node1&#45;&gt;Node3</title>
<g id="a_edge2_Node000001_Node000003"><a xlink:title=" ">
<path fill="none" stroke="#63b8ff" d="M266.41,-167.57C207.38,-160.99 125.18,-148.62 99.5,-129 71.68,-107.75 63.93,-88.94 72.5,-55 74.91,-45.44 79.83,-35.7 84.59,-27.78"/>
<polygon fill="#63b8ff" stroke="#63b8ff" points="87.67,-29.46 90.13,-19.16 81.78,-25.68 87.67,-29.46"/>
</a>
</g>
</g>
<!-- Node4 -->
<g id="Node000004" class="node">
<title>Node4</title>
<g id="a_Node000004"><a xlink:title=" ">
<polygon fill="#e0e0e0" stroke="#999999" points="551.5,-129 501.5,-129 501.5,-110 551.5,-110 551.5,-129"/>
<text text-anchor="middle" x="526.5" y="-117" font-family="Helvetica,sans-Serif" font-size="10.00">cstring</text>
</a>
</g>
</g>
<!-- Node1&#45;&gt;Node4 -->
<g id="edge3_Node000001_Node000004" class="edge">
<title>Node1&#45;&gt;Node4</title>
<g id="a_edge3_Node000001_Node000004"><a xlink:title=" ">
<path fill="none" stroke="#63b8ff" d="M361.99,-164.98C397.4,-155.41 454.75,-139.9 491.53,-129.96"/>
<polygon fill="#63b8ff" stroke="#63b8ff" points="492.58,-133.3 501.32,-127.31 490.75,-126.54 492.58,-133.3"/>
</a>
</g>
</g>
<!-- Node5 -->
<g id="Node000005" class="node">
<title>Node5</title>
<g id="a_Node000005"><a xlink:title=" ">
<polygon fill="#e0e0e0" stroke="#999999" points="617,-129 570,-129 570,-110 617,-110 617,-129"/>
<text text-anchor="middle" x="593.5" y="-117" font-family="Helvetica,sans-Serif" font-size="10.00">cerrno</text>
</a>
</g>
</g>
<!-- Node1&#45;&gt;Node5 -->
<g id="edge4_Node000001_Node000005" class="edge">
<title>Node1&#45;&gt;Node5</title>
<g id="a_edge4_Node000001_Node000005"><a xlink:title=" ">
<path fill="none" stroke="#63b8ff" d="M379.14,-164.98C423.63,-156.99 491.48,-144.29 559.69,-129.07"/>
<polygon fill="#63b8ff" stroke="#63b8ff" points="560.76,-132.41 569.75,-126.8 559.22,-125.58 560.76,-132.41"/>
</a>
</g>
</g>
<!-- Node6 -->
<g id="Node000006" class="node">
<title>Node6</title>
<g id="a_Node000006"><a xlink:title=" ">
<polygon fill="#e0e0e0" stroke="#999999" points="251.5,-19 187.5,-19 187.5,0 251.5,0 251.5,-19"/>
<text text-anchor="middle" x="219.5" y="-7" font-family="Helvetica,sans-Serif" font-size="10.00">algorithm</text>
</a>
</g>
</g>
<!-- Node1&#45;&gt;Node6 -->
<g id="edge5_Node000001_Node000006" class="edge">
<title>Node1&#45;&gt;Node6</title>
<g id="a_edge5_Node000001_Node000006"><a xlink:title=" ">
<path fill="none" stroke="#63b8ff" d="M320.9,-164.89C311.69,-156.34 297.7,-142.57 287.5,-129 274.18,-111.28 244.05,-56.24 228.76,-27.84"/>
<polygon fill="#63b8ff" stroke="#63b8ff" points="231.84,-26.17 224.03,-19.01 225.67,-29.48 231.84,-26.17"/>
</a>
</g>
</g>
<!-- Node7 -->
<g id="Node000007" class="node">
<title>Node7</title>
<g id="a_Node000007"><a xlink:title=" ">
<polygon fill="#e0e0e0" stroke="#999999" points="685.5,-129 635.5,-129 635.5,-110 685.5,-110 685.5,-129"/>
<text text-anchor="middle" x="660.5" y="-117" font-family="Helvetica,sans-Serif" font-size="10.00">chrono</text>
</a>
</g>
</g>
<!-- Node1&#45;&gt;Node7 -->
<g id="edge6_Node000001_Node000007" class="edge">
<title>Node1&#45;&gt;Node7</title>
<g id="a_edge6_Node000001_Node000007"><a xlink:title=" ">
<path fill="none" stroke="#63b8ff" d="M394.61,-165.66C452.54,-158.17 540.32,-145.81 625.48,-129.04"/>
<polygon fill="#63b8ff" stroke="#63b8ff" points="626.19,-132.47 635.31,-127.08 624.82,-125.6 626.19,-132.47"/>
</a>
</g>
</g>
<!-- Node8 -->
<g id="Node000008" class="node">
<title>Node8</title>
<g id="a_Node000008"><a xlink:title=" ">
<polygon fill="#e0e0e0" stroke="#999999" points="757.5,-129 703.5,-129 703.5,-110 757.5,-110 757.5,-129"/>
<text text-anchor="middle" x="730.5" y="-117" font-family="Helvetica,sans-Serif" font-size="10.00">random</text>
</a>
</g>
</g>
<!-- Node1&#45;&gt;Node8 -->
<g id="edge7_Node000001_Node000008" class="edge">
<title>Node1&#45;&gt;Node8</title>
<g id="a_edge7_Node000001_Node000008"><a xlink:title=" ">
<path fill="none" stroke="#63b8ff" d="M394.6,-167.82C465.42,-161.06 583.01,-148.41 693.46,-129"/>
<polygon fill="#63b8ff" stroke="#63b8ff" points="694.21,-132.42 703.44,-127.23 692.98,-125.53 694.21,-132.42"/>
</a>
</g>
</g>
<!-- Node9 -->
<g id="Node000009" class="node">
<title>Node9</title>
<g id="a_Node000009"><a xlink:href="config_8hpp.html" target="_top" xlink:title=" ">
<polygon fill="white" stroke="#666666" points="233,-74 166,-74 166,-55 233,-55 233,-74"/>
<text text-anchor="middle" x="199.5" y="-62" font-family="Helvetica,sans-Serif" font-size="10.00">config.hpp</text>
</a>
</g>
</g>
<!-- Node1&#45;&gt;Node9 -->
<g id="edge8_Node000001_Node000009" class="edge">
<title>Node1&#45;&gt;Node9</title>
<g id="a_edge8_Node000001_Node000009"><a xlink:title=" ">
<path fill="none" stroke="#63b8ff" d="M311.63,-164.88C295.29,-156.9 271.52,-144.03 253.5,-129 237.06,-115.3 221.6,-96.24 211.47,-82.58"/>
<polygon fill="#63b8ff" stroke="#63b8ff" points="214.05,-80.18 205.36,-74.12 208.37,-84.28 214.05,-80.18"/>
</a>
</g>
</g>
<!-- Node10 -->
<g id="Node000010" class="node">
<title>Node10</title>
<g id="a_Node000010"><a xlink:href="mpi__config_8hpp.html" target="_top" xlink:title=" ">
<polygon fill="white" stroke="#666666" points="387,-74 296,-74 296,-55 387,-55 387,-74"/>
<text text-anchor="middle" x="341.5" y="-62" font-family="Helvetica,sans-Serif" font-size="10.00">mpi_config.hpp</text>
</a>
</g>
</g>
<!-- Node1&#45;&gt;Node10 -->
<g id="edge9_Node000001_Node000010" class="edge">
<title>Node1&#45;&gt;Node10</title>
<g id="a_edge9_Node000001_Node000010"><a xlink:title=" ">
<path fill="none" stroke="#63b8ff" d="M343.28,-165C353.89,-157.1 368.22,-144.27 374.5,-129 381.32,-112.41 369.95,-94.33 358.74,-81.73"/>
<polygon fill="#63b8ff" stroke="#63b8ff" points="361.05,-79.08 351.59,-74.3 356,-83.93 361.05,-79.08"/>
</a>
</g>
</g>
<!-- Node13 -->
<g id="Node000013" class="node">
<title>Node13</title>
<g id="a_Node000013"><a xlink:href="mhd_8hpp.html" target="_top" xlink:title=" ">
<polygon fill="white" stroke="#666666" points="141,-74 82,-74 82,-55 141,-55 141,-74"/>
<text text-anchor="middle" x="111.5" y="-62" font-family="Helvetica,sans-Serif" font-size="10.00">mhd.hpp</text>
</a>
</g>
</g>
<!-- Node1&#45;&gt;Node13 -->
<g id="edge12_Node000001_Node000013" class="edge">
<title>Node1&#45;&gt;Node13</title>
<g id="a_edge12_Node000001_Node000013"><a xlink:title=" ">
<path fill="none" stroke="#63b8ff" d="M266.48,-169.36C208.72,-164.12 129.93,-152.75 110.5,-129 100.36,-116.61 102.05,-97.85 105.4,-83.93"/>
<polygon fill="#63b8ff" stroke="#63b8ff" points="108.85,-84.6 108.26,-74.02 102.13,-82.66 108.85,-84.6"/>
</a>
</g>
</g>
<!-- Node14 -->
<g id="Node000014" class="node">
<title>Node14</title>
<g id="a_Node000014"><a xlink:href="boundary_8hpp.html" target="_top" xlink:title=" ">
<polygon fill="white" stroke="#666666" points="201.5,-129 119.5,-129 119.5,-110 201.5,-110 201.5,-129"/>
<text text-anchor="middle" x="160.5" y="-117" font-family="Helvetica,sans-Serif" font-size="10.00">boundary.hpp</text>
</a>
</g>
</g>
<!-- Node1&#45;&gt;Node14 -->
<g id="edge16_Node000001_Node000014" class="edge">
<title>Node1&#45;&gt;Node14</title>
<g id="a_edge16_Node000001_Node000014"><a xlink:title=" ">
<path fill="none" stroke="#63b8ff" d="M303.19,-164.98C274.65,-156.09 229.67,-142.07 197.86,-132.15"/>
<polygon fill="#63b8ff" stroke="#63b8ff" points="198.62,-128.72 188.03,-129.08 196.53,-135.4 198.62,-128.72"/>
</a>
</g>
</g>
<!-- Node15 -->
<g id="Node000015" class="node">
<title>Node15</title>
<g id="a_Node000015"><a xlink:href="output_8hpp.html" target="_top" xlink:title=" ">
<polygon fill="white" stroke="#666666" points="365,-129 296,-129 296,-110 365,-110 365,-129"/>
<text text-anchor="middle" x="330.5" y="-117" font-family="Helvetica,sans-Serif" font-size="10.00">output.hpp</text>
</a>
</g>
</g>
<!-- Node1&#45;&gt;Node15 -->
<g id="edge19_Node000001_Node000015" class="edge">
<title>Node1&#45;&gt;Node15</title>
<g id="a_edge19_Node000001_Node000015"><a xlink:title=" ">
<path fill="none" stroke="#63b8ff" d="M330.5,-164.75C330.5,-157.8 330.5,-147.85 330.5,-139.13"/>
<polygon fill="#63b8ff" stroke="#63b8ff" points="334,-139.09 330.5,-129.09 327,-139.09 334,-139.09"/>
</a>
</g>
</g>
<!-- Node16 -->
<g id="Node000016" class="node">
<title>Node16</title>
<g id="a_Node000016"><a xlink:href="main_8hpp.html" target="_top" xlink:title=" ">
<polygon fill="white" stroke="#666666" points="483.5,-129 421.5,-129 421.5,-110 483.5,-110 483.5,-129"/>
<text text-anchor="middle" x="452.5" y="-117" font-family="Helvetica,sans-Serif" font-size="10.00">main.hpp</text>
</a>
</g>
</g>
<!-- Node1&#45;&gt;Node16 -->
<g id="edge21_Node000001_Node000016" class="edge">
<title>Node1&#45;&gt;Node16</title>
<g id="a_edge21_Node000001_Node000016"><a xlink:title=" ">
<path fill="none" stroke="#63b8ff" d="M350.1,-164.98C369.82,-156.42 400.45,-143.11 423.08,-133.28"/>
<polygon fill="#63b8ff" stroke="#63b8ff" points="424.76,-136.37 432.54,-129.17 421.98,-129.94 424.76,-136.37"/>
</a>
</g>
</g>
<!-- Node11 -->
<g id="Node000011" class="node">
<title>Node11</title>
<g id="a_Node000011"><a xlink:title=" ">
<polygon fill="#e0e0e0" stroke="#999999" points="313.5,-19 269.5,-19 269.5,0 313.5,0 313.5,-19"/>
<text text-anchor="middle" x="291.5" y="-7" font-family="Helvetica,sans-Serif" font-size="10.00">mpi.h</text>
</a>
</g>
</g>
<!-- Node10&#45;&gt;Node11 -->
<g id="edge10_Node000010_Node000011" class="edge">
<title>Node10&#45;&gt;Node11</title>
<g id="a_edge10_Node000010_Node000011"><a xlink:title=" ">
<path fill="none" stroke="#63b8ff" d="M333.24,-54.75C326.04,-47.11 315.39,-35.82 306.65,-26.56"/>
<polygon fill="#63b8ff" stroke="#63b8ff" points="309.01,-23.96 299.6,-19.09 303.92,-28.76 309.01,-23.96"/>
</a>
</g>
</g>
<!-- Node12 -->
<g id="Node000012" class="node">
<title>Node12</title>
<g id="a_Node000012"><a xlink:title=" ">
<polygon fill="#e0e0e0" stroke="#999999" points="385,-19 332,-19 332,0 385,0 385,-19"/>
<text text-anchor="middle" x="358.5" y="-7" font-family="Helvetica,sans-Serif" font-size="10.00">cstddef</text>
</a>
</g>
</g>
<!-- Node10&#45;&gt;Node12 -->
<g id="edge11_Node000010_Node000012" class="edge">
<title>Node10&#45;&gt;Node12</title>
<g id="a_edge11_Node000010_Node000012"><a xlink:title=" ">
<path fill="none" stroke="#63b8ff" d="M344.31,-54.75C346.56,-47.72 349.8,-37.62 352.62,-28.84"/>
<polygon fill="#63b8ff" stroke="#63b8ff" points="356.02,-29.68 355.75,-19.09 349.36,-27.54 356.02,-29.68"/>
</a>
</g>
</g>
<!-- Node13&#45;&gt;Node2 -->
<g id="edge13_Node000013_Node000002" class="edge">
<title>Node13&#45;&gt;Node2</title>
<g id="a_edge13_Node000013_Node000002"><a xlink:title=" ">
<path fill="none" stroke="#63b8ff" d="M97.36,-54.98C83.71,-46.77 62.81,-34.18 46.72,-24.49"/>
<polygon fill="#63b8ff" stroke="#63b8ff" points="48.27,-21.33 37.9,-19.17 44.66,-27.33 48.27,-21.33"/>
</a>
</g>
</g>
<!-- Node13&#45;&gt;Node3 -->
<g id="edge14_Node000013_Node000003" class="edge">
<title>Node13&#45;&gt;Node3</title>
<g id="a_edge14_Node000013_Node000003"><a xlink:title=" ">
<path fill="none" stroke="#63b8ff" d="M109.02,-54.75C107.04,-47.72 104.18,-37.62 101.69,-28.84"/>
<polygon fill="#63b8ff" stroke="#63b8ff" points="105.02,-27.76 98.93,-19.09 98.29,-29.66 105.02,-27.76"/>
</a>
</g>
</g>
<!-- Node13&#45;&gt;Node6 -->
<g id="edge15_Node000013_Node000006" class="edge">
<title>Node13&#45;&gt;Node6</title>
<g id="a_edge15_Node000013_Node000006"><a xlink:title=" ">
<path fill="none" stroke="#63b8ff" d="M128.85,-54.98C146.07,-46.54 172.7,-33.47 192.65,-23.68"/>
<polygon fill="#63b8ff" stroke="#63b8ff" points="194.4,-26.72 201.83,-19.17 191.31,-20.43 194.4,-26.72"/>
</a>
</g>
</g>
<!-- Node14&#45;&gt;Node9 -->
<g id="edge17_Node000014_Node000009" class="edge">
<title>Node14&#45;&gt;Node9</title>
<g id="a_edge17_Node000014_Node000009"><a xlink:title=" ">
<path fill="none" stroke="#63b8ff" d="M166.94,-109.75C172.39,-102.34 180.36,-91.5 187.06,-82.41"/>
<polygon fill="#63b8ff" stroke="#63b8ff" points="190.07,-84.22 193.18,-74.09 184.43,-80.07 190.07,-84.22"/>
</a>
</g>
</g>
<!-- Node14&#45;&gt;Node13 -->
<g id="edge18_Node000014_Node000013" class="edge">
<title>Node14&#45;&gt;Node13</title>
<g id="a_edge18_Node000014_Node000013"><a xlink:title=" ">
<path fill="none" stroke="#63b8ff" d="M152.41,-109.75C145.34,-102.11 134.91,-90.82 126.35,-81.56"/>
<polygon fill="#63b8ff" stroke="#63b8ff" points="128.8,-79.06 119.44,-74.09 123.66,-83.81 128.8,-79.06"/>
</a>
</g>
</g>
<!-- Node15&#45;&gt;Node10 -->
<g id="edge20_Node000015_Node000010" class="edge">
<title>Node15&#45;&gt;Node10</title>
<g id="a_edge20_Node000015_Node000010"><a xlink:title=" ">
<path fill="none" stroke="#63b8ff" d="M332.32,-109.75C333.76,-102.8 335.82,-92.85 337.63,-84.13"/>
<polygon fill="#63b8ff" stroke="#63b8ff" points="341.11,-84.59 339.72,-74.09 334.26,-83.17 341.11,-84.59"/>
</a>
</g>
</g>
<!-- Node17 -->
<g id="Node000017" class="node">
<title>Node17</title>
<g id="a_Node000017"><a xlink:href="hydro__arrays_8hpp.html" target="_top" xlink:title=" ">
<polygon fill="white" stroke="#666666" points="506,-74 405,-74 405,-55 506,-55 506,-74"/>
<text text-anchor="middle" x="455.5" y="-62" font-family="Helvetica,sans-Serif" font-size="10.00">hydro_arrays.hpp</text>
</a>
</g>
</g>
<!-- Node16&#45;&gt;Node17 -->
<g id="edge22_Node000016_Node000017" class="edge">
<title>Node16&#45;&gt;Node17</title>
<g id="a_edge22_Node000016_Node000017"><a xlink:title=" ">
<path fill="none" stroke="#63b8ff" d="M453,-109.75C453.39,-102.8 453.95,-92.85 454.45,-84.13"/>
<polygon fill="#63b8ff" stroke="#63b8ff" points="457.94,-84.27 455.01,-74.09 450.95,-83.88 457.94,-84.27"/>
</a>
</g>
</g>
<!-- Node17&#45;&gt;Node6 -->
<g id="edge26_Node000017_Node000006" class="edge">
<title>Node17&#45;&gt;Node6</title>
<g id="a_edge26_Node000017_Node000006"><a xlink:title=" ">
<path fill="none" stroke="#63b8ff" d="M417.58,-54.98C374.91,-45.4 305.79,-29.88 261.51,-19.93"/>
<polygon fill="#63b8ff" stroke="#63b8ff" points="262.16,-16.49 251.64,-17.72 260.63,-23.32 262.16,-16.49"/>
</a>
</g>
</g>
<!-- Node17&#45;&gt;Node12 -->
<g id="edge25_Node000017_Node000012" class="edge">
<title>Node17&#45;&gt;Node12</title>
<g id="a_edge25_Node000017_Node000012"><a xlink:title=" ">
<path fill="none" stroke="#63b8ff" d="M439.92,-54.98C424.73,-46.69 401.4,-33.94 383.6,-24.22"/>
<polygon fill="#63b8ff" stroke="#63b8ff" points="384.82,-20.89 374.37,-19.17 381.47,-27.04 384.82,-20.89"/>
</a>
</g>
</g>
<!-- Node18 -->
<g id="Node000018" class="node">
<title>Node18</title>
<g id="a_Node000018"><a xlink:title=" ">
<polygon fill="#e0e0e0" stroke="#999999" points="537,-19 490,-19 490,0 537,0 537,-19"/>
<text text-anchor="middle" x="513.5" y="-7" font-family="Helvetica,sans-Serif" font-size="10.00">vector</text>
</a>
</g>
</g>
<!-- Node17&#45;&gt;Node18 -->
<g id="edge23_Node000017_Node000018" class="edge">
<title>Node17&#45;&gt;Node18</title>
<g id="a_edge23_Node000017_Node000018"><a xlink:title=" ">
<path fill="none" stroke="#63b8ff" d="M464.82,-54.98C473.31,-47.23 486.06,-35.58 496.38,-26.14"/>
<polygon fill="#63b8ff" stroke="#63b8ff" points="498.99,-28.5 504.01,-19.17 494.27,-23.33 498.99,-28.5"/>
</a>
</g>
</g>
<!-- Node19 -->
<g id="Node000019" class="node">
<title>Node19</title>
<g id="a_Node000019"><a xlink:title=" ">
<polygon fill="#e0e0e0" stroke="#999999" points="607.5,-19 555.5,-19 555.5,0 607.5,0 607.5,-19"/>
<text text-anchor="middle" x="581.5" y="-7" font-family="Helvetica,sans-Serif" font-size="10.00">cassert</text>
</a>
</g>
</g>
<!-- Node17&#45;&gt;Node19 -->
<g id="edge24_Node000017_Node000019" class="edge">
<title>Node17&#45;&gt;Node19</title>
<g id="a_edge24_Node000017_Node000019"><a xlink:title=" ">
<path fill="none" stroke="#63b8ff" d="M475.74,-54.98C496.2,-46.38 528.03,-32.99 551.43,-23.15"/>
<polygon fill="#63b8ff" stroke="#63b8ff" points="553.03,-26.27 560.89,-19.17 550.31,-19.82 553.03,-26.27"/>
</a>
</g>
</g>
<!-- Node20 -->
<g id="Node000020" class="node">
<title>Node20</title>
<g id="a_Node000020"><a xlink:title=" ">
<polygon fill="#e0e0e0" stroke="#999999" points="671,-19 626,-19 626,0 671,0 671,-19"/>
<text text-anchor="middle" x="648.5" y="-7" font-family="Helvetica,sans-Serif" font-size="10.00">utility</text>
</a>
</g>
</g>
<!-- Node17&#45;&gt;Node20 -->
<g id="edge27_Node000017_Node000020" class="edge">
<title>Node17&#45;&gt;Node20</title>
<g id="a_edge27_Node000017_Node000020"><a xlink:title=" ">
<path fill="none" stroke="#63b8ff" d="M486.51,-54.98C521.91,-45.26 579.57,-29.43 615.7,-19.51"/>
<polygon fill="#63b8ff" stroke="#63b8ff" points="617.01,-22.78 625.73,-16.75 615.16,-16.03 617.01,-22.78"/>
</a>
</g>
</g>
<!-- Node21 -->
<g id="Node000021" class="node">
<title>Node21</title>
<g id="a_Node000021"><a xlink:title=" ">
<polygon fill="#e0e0e0" stroke="#999999" points="472,-19 403,-19 403,0 472,0 472,-19"/>
<text text-anchor="middle" x="437.5" y="-7" font-family="Helvetica,sans-Serif" font-size="10.00">type_traits</text>
</a>
</g>
</g>
<!-- Node17&#45;&gt;Node21 -->
<g id="edge28_Node000017_Node000021" class="edge">
<title>Node17&#45;&gt;Node21</title>
<g id="a_edge28_Node000017_Node000021"><a xlink:title=" ">
<path fill="none" stroke="#63b8ff" d="M452.53,-54.75C450.14,-47.72 446.71,-37.62 443.73,-28.84"/>
<polygon fill="#63b8ff" stroke="#63b8ff" points="446.95,-27.43 440.42,-19.09 440.32,-29.68 446.95,-27.43"/>
</a>
</g>
</g>
</g>
</svg>
